<mxfile host="65bd71144e">
    <diagram name="Page-1" id="dLDfiO9knBDIYiQQpxDO">
        <mxGraphModel dx="808" dy="550" grid="0" gridSize="10" guides="1" tooltips="1" connect="1" arrows="1" fold="1" page="1" pageScale="1" pageWidth="1169" pageHeight="827" math="0" shadow="0">
            <root>
                <mxCell id="0"/>
                <mxCell id="1" parent="0"/>
                <mxCell id="HRndRSVT6b_f7wfv0apm-1" value="Stopwatch" style="swimlane;fontStyle=1;align=center;verticalAlign=top;childLayout=stackLayout;horizontal=1;startSize=26;horizontalStack=0;resizeParent=1;resizeParentMax=0;resizeLast=0;collapsible=1;marginBottom=0;whiteSpace=wrap;html=1;" parent="1" vertex="1">
                    <mxGeometry x="674" y="470" width="272" height="164" as="geometry">
                        <mxRectangle x="250" y="305" width="100" height="30" as="alternateBounds"/>
                    </mxGeometry>
                </mxCell>
                <mxCell id="HRndRSVT6b_f7wfv0apm-2" value="+ state: ObservableState&amp;lt;StopwatchState&amp;gt;" style="text;strokeColor=none;fillColor=none;align=left;verticalAlign=top;spacingLeft=4;spacingRight=4;overflow=hidden;rotatable=0;points=[[0,0.5],[1,0.5]];portConstraint=eastwest;whiteSpace=wrap;html=1;" parent="HRndRSVT6b_f7wfv0apm-1" vertex="1">
                    <mxGeometry y="26" width="272" height="26" as="geometry"/>
                </mxCell>
                <mxCell id="HRndRSVT6b_f7wfv0apm-3" value="" style="line;strokeWidth=1;fillColor=none;align=left;verticalAlign=middle;spacingTop=-1;spacingLeft=3;spacingRight=3;rotatable=0;labelPosition=right;points=[];portConstraint=eastwest;strokeColor=inherit;" parent="HRndRSVT6b_f7wfv0apm-1" vertex="1">
                    <mxGeometry y="52" width="272" height="8" as="geometry"/>
                </mxCell>
                <mxCell id="HRndRSVT6b_f7wfv0apm-4" value="+ start()" style="text;strokeColor=none;fillColor=none;align=left;verticalAlign=top;spacingLeft=4;spacingRight=4;overflow=hidden;rotatable=0;points=[[0,0.5],[1,0.5]];portConstraint=eastwest;whiteSpace=wrap;html=1;" parent="HRndRSVT6b_f7wfv0apm-1" vertex="1">
                    <mxGeometry y="60" width="272" height="26" as="geometry"/>
                </mxCell>
                <mxCell id="f54QpN5S-JQbel7T8KCX-1" value="+ resume()" style="text;strokeColor=none;fillColor=none;align=left;verticalAlign=top;spacingLeft=4;spacingRight=4;overflow=hidden;rotatable=0;points=[[0,0.5],[1,0.5]];portConstraint=eastwest;whiteSpace=wrap;html=1;" parent="HRndRSVT6b_f7wfv0apm-1" vertex="1">
                    <mxGeometry y="86" width="272" height="26" as="geometry"/>
                </mxCell>
                <mxCell id="HRndRSVT6b_f7wfv0apm-5" value="+ pause()" style="text;strokeColor=none;fillColor=none;align=left;verticalAlign=top;spacingLeft=4;spacingRight=4;overflow=hidden;rotatable=0;points=[[0,0.5],[1,0.5]];portConstraint=eastwest;whiteSpace=wrap;html=1;" parent="HRndRSVT6b_f7wfv0apm-1" vertex="1">
                    <mxGeometry y="112" width="272" height="26" as="geometry"/>
                </mxCell>
                <mxCell id="HRndRSVT6b_f7wfv0apm-6" value="+ reset()" style="text;strokeColor=none;fillColor=none;align=left;verticalAlign=top;spacingLeft=4;spacingRight=4;overflow=hidden;rotatable=0;points=[[0,0.5],[1,0.5]];portConstraint=eastwest;whiteSpace=wrap;html=1;" parent="HRndRSVT6b_f7wfv0apm-1" vertex="1">
                    <mxGeometry y="138" width="272" height="26" as="geometry"/>
                </mxCell>
                <mxCell id="HRndRSVT6b_f7wfv0apm-7" value="StopwatchState" style="swimlane;fontStyle=1;align=center;verticalAlign=top;childLayout=stackLayout;horizontal=1;startSize=26;horizontalStack=0;resizeParent=1;resizeParentMax=0;resizeLast=0;collapsible=1;marginBottom=0;whiteSpace=wrap;html=1;gradientColor=none;" parent="1" vertex="1">
                    <mxGeometry x="1021" y="448" width="213" height="86" as="geometry">
                        <mxRectangle x="530" y="305" width="120" height="30" as="alternateBounds"/>
                    </mxGeometry>
                </mxCell>
                <mxCell id="HRndRSVT6b_f7wfv0apm-8" value="+ seconds: Float" style="text;strokeColor=none;fillColor=none;align=left;verticalAlign=top;spacingLeft=4;spacingRight=4;overflow=hidden;rotatable=0;points=[[0,0.5],[1,0.5]];portConstraint=eastwest;whiteSpace=wrap;html=1;" parent="HRndRSVT6b_f7wfv0apm-7" vertex="1">
                    <mxGeometry y="26" width="213" height="26" as="geometry"/>
                </mxCell>
                <mxCell id="HRndRSVT6b_f7wfv0apm-13" value="+ status: StopwatchStatus" style="text;strokeColor=none;fillColor=none;align=left;verticalAlign=top;spacingLeft=4;spacingRight=4;overflow=hidden;rotatable=0;points=[[0,0.5],[1,0.5]];portConstraint=eastwest;whiteSpace=wrap;html=1;" parent="HRndRSVT6b_f7wfv0apm-7" vertex="1">
                    <mxGeometry y="52" width="213" height="26" as="geometry"/>
                </mxCell>
                <mxCell id="HRndRSVT6b_f7wfv0apm-9" value="" style="line;strokeWidth=1;fillColor=none;align=left;verticalAlign=middle;spacingTop=-1;spacingLeft=3;spacingRight=3;rotatable=0;labelPosition=right;points=[];portConstraint=eastwest;strokeColor=inherit;" parent="HRndRSVT6b_f7wfv0apm-7" vertex="1">
                    <mxGeometry y="78" width="213" height="8" as="geometry"/>
                </mxCell>
                <mxCell id="HRndRSVT6b_f7wfv0apm-31" value="" style="group" parent="1" vertex="1" connectable="0">
                    <mxGeometry x="1314" y="449" width="167" height="124" as="geometry"/>
                </mxCell>
                <mxCell id="HRndRSVT6b_f7wfv0apm-27" value="Classname" style="swimlane;fontStyle=0;childLayout=stackLayout;horizontal=1;startSize=26;fillColor=none;horizontalStack=0;resizeParent=1;resizeParentMax=0;resizeLast=0;collapsible=1;marginBottom=0;whiteSpace=wrap;html=1;" parent="HRndRSVT6b_f7wfv0apm-31" vertex="1">
                    <mxGeometry y="20" width="167" height="104" as="geometry"/>
                </mxCell>
                <mxCell id="HRndRSVT6b_f7wfv0apm-28" value="INITIAL" style="text;strokeColor=none;fillColor=none;align=left;verticalAlign=top;spacingLeft=4;spacingRight=4;overflow=hidden;rotatable=0;points=[[0,0.5],[1,0.5]];portConstraint=eastwest;whiteSpace=wrap;html=1;" parent="HRndRSVT6b_f7wfv0apm-27" vertex="1">
                    <mxGeometry y="26" width="167" height="26" as="geometry"/>
                </mxCell>
                <mxCell id="HRndRSVT6b_f7wfv0apm-29" value="RUNNING" style="text;strokeColor=none;fillColor=none;align=left;verticalAlign=top;spacingLeft=4;spacingRight=4;overflow=hidden;rotatable=0;points=[[0,0.5],[1,0.5]];portConstraint=eastwest;whiteSpace=wrap;html=1;" parent="HRndRSVT6b_f7wfv0apm-27" vertex="1">
                    <mxGeometry y="52" width="167" height="26" as="geometry"/>
                </mxCell>
                <mxCell id="HRndRSVT6b_f7wfv0apm-30" value="PAUSED" style="text;strokeColor=none;fillColor=none;align=left;verticalAlign=top;spacingLeft=4;spacingRight=4;overflow=hidden;rotatable=0;points=[[0,0.5],[1,0.5]];portConstraint=eastwest;whiteSpace=wrap;html=1;" parent="HRndRSVT6b_f7wfv0apm-27" vertex="1">
                    <mxGeometry y="78" width="167" height="26" as="geometry"/>
                </mxCell>
                <mxCell id="HRndRSVT6b_f7wfv0apm-25" value="«enumeration»&lt;br&gt;&lt;b&gt;StopwatchStatus&lt;/b&gt;" style="html=1;whiteSpace=wrap;" parent="HRndRSVT6b_f7wfv0apm-31" vertex="1">
                    <mxGeometry width="167" height="50" as="geometry"/>
                </mxCell>
                <mxCell id="HRndRSVT6b_f7wfv0apm-49" value="StopwatchView" style="swimlane;fontStyle=1;align=center;verticalAlign=top;childLayout=stackLayout;horizontal=1;startSize=26;horizontalStack=0;resizeParent=1;resizeParentMax=0;resizeLast=0;collapsible=1;marginBottom=0;whiteSpace=wrap;html=1;" parent="1" vertex="1">
                    <mxGeometry x="54" y="285" width="200" height="138" as="geometry"/>
                </mxCell>
                <mxCell id="HRndRSVT6b_f7wfv0apm-50" value="- state: ViewData" style="text;strokeColor=none;fillColor=none;align=left;verticalAlign=top;spacingLeft=4;spacingRight=4;overflow=hidden;rotatable=0;points=[[0,0.5],[1,0.5]];portConstraint=eastwest;whiteSpace=wrap;html=1;" parent="HRndRSVT6b_f7wfv0apm-49" vertex="1">
                    <mxGeometry y="26" width="200" height="26" as="geometry"/>
                </mxCell>
                <mxCell id="HRndRSVT6b_f7wfv0apm-53" value="- viewModel: StopwatchViewModel" style="text;strokeColor=none;fillColor=none;align=left;verticalAlign=top;spacingLeft=4;spacingRight=4;overflow=hidden;rotatable=0;points=[[0,0.5],[1,0.5]];portConstraint=eastwest;whiteSpace=wrap;html=1;" parent="HRndRSVT6b_f7wfv0apm-49" vertex="1">
                    <mxGeometry y="52" width="200" height="26" as="geometry"/>
                </mxCell>
                <mxCell id="f54QpN5S-JQbel7T8KCX-29" style="edgeStyle=orthogonalEdgeStyle;rounded=0;orthogonalLoop=1;jettySize=auto;html=1;endArrow=open;endFill=0;startArrow=diamond;startFill=1;" parent="HRndRSVT6b_f7wfv0apm-49" edge="1">
                    <mxGeometry relative="1" as="geometry">
                        <mxPoint x="272" y="65" as="targetPoint"/>
                        <mxPoint x="204" y="65" as="sourcePoint"/>
                    </mxGeometry>
                </mxCell>
                <mxCell id="HRndRSVT6b_f7wfv0apm-51" value="" style="line;strokeWidth=1;fillColor=none;align=left;verticalAlign=middle;spacingTop=-1;spacingLeft=3;spacingRight=3;rotatable=0;labelPosition=right;points=[];portConstraint=eastwest;strokeColor=inherit;" parent="HRndRSVT6b_f7wfv0apm-49" vertex="1">
                    <mxGeometry y="78" width="200" height="8" as="geometry"/>
                </mxCell>
                <mxCell id="HRndRSVT6b_f7wfv0apm-52" value="+ onStateChange(state: T)" style="text;strokeColor=none;fillColor=none;align=left;verticalAlign=top;spacingLeft=4;spacingRight=4;overflow=hidden;rotatable=0;points=[[0,0.5],[1,0.5]];portConstraint=eastwest;whiteSpace=wrap;html=1;" parent="HRndRSVT6b_f7wfv0apm-49" vertex="1">
                    <mxGeometry y="86" width="200" height="26" as="geometry"/>
                </mxCell>
                <mxCell id="f54QpN5S-JQbel7T8KCX-116" value="..." style="text;strokeColor=none;fillColor=none;align=left;verticalAlign=top;spacingLeft=4;spacingRight=4;overflow=hidden;rotatable=0;points=[[0,0.5],[1,0.5]];portConstraint=eastwest;whiteSpace=wrap;html=1;" parent="HRndRSVT6b_f7wfv0apm-49" vertex="1">
                    <mxGeometry y="112" width="200" height="26" as="geometry"/>
                </mxCell>
                <mxCell id="HRndRSVT6b_f7wfv0apm-58" value="StopwatchViewModel" style="swimlane;fontStyle=1;align=center;verticalAlign=top;childLayout=stackLayout;horizontal=1;startSize=26;horizontalStack=0;resizeParent=1;resizeParentMax=0;resizeLast=0;collapsible=1;marginBottom=0;whiteSpace=wrap;html=1;" parent="1" vertex="1">
                    <mxGeometry x="330" y="282" width="215" height="190" as="geometry"/>
                </mxCell>
                <mxCell id="f54QpN5S-JQbel7T8KCX-5" value="+ state: ObservableState&amp;lt;ViewData&amp;gt;" style="text;strokeColor=none;fillColor=none;align=left;verticalAlign=top;spacingLeft=4;spacingRight=4;overflow=hidden;rotatable=0;points=[[0,0.5],[1,0.5]];portConstraint=eastwest;whiteSpace=wrap;html=1;" parent="HRndRSVT6b_f7wfv0apm-58" vertex="1">
                    <mxGeometry y="26" width="215" height="26" as="geometry"/>
                </mxCell>
                <mxCell id="HRndRSVT6b_f7wfv0apm-60" value="- stopwatch: Stopwatch" style="text;strokeColor=none;fillColor=none;align=left;verticalAlign=top;spacingLeft=4;spacingRight=4;overflow=hidden;rotatable=0;points=[[0,0.5],[1,0.5]];portConstraint=eastwest;whiteSpace=wrap;html=1;" parent="HRndRSVT6b_f7wfv0apm-58" vertex="1">
                    <mxGeometry y="52" width="215" height="26" as="geometry"/>
                </mxCell>
                <mxCell id="HRndRSVT6b_f7wfv0apm-61" value="" style="line;strokeWidth=1;fillColor=none;align=left;verticalAlign=middle;spacingTop=-1;spacingLeft=3;spacingRight=3;rotatable=0;labelPosition=right;points=[];portConstraint=eastwest;strokeColor=inherit;" parent="HRndRSVT6b_f7wfv0apm-58" vertex="1">
                    <mxGeometry y="78" width="215" height="8" as="geometry"/>
                </mxCell>
                <mxCell id="HRndRSVT6b_f7wfv0apm-62" value="+ startOrResume()" style="text;strokeColor=none;fillColor=none;align=left;verticalAlign=top;spacingLeft=4;spacingRight=4;overflow=hidden;rotatable=0;points=[[0,0.5],[1,0.5]];portConstraint=eastwest;whiteSpace=wrap;html=1;" parent="HRndRSVT6b_f7wfv0apm-58" vertex="1">
                    <mxGeometry y="86" width="215" height="26" as="geometry"/>
                </mxCell>
                <mxCell id="f54QpN5S-JQbel7T8KCX-2" value="+ pause()" style="text;strokeColor=none;fillColor=none;align=left;verticalAlign=top;spacingLeft=4;spacingRight=4;overflow=hidden;rotatable=0;points=[[0,0.5],[1,0.5]];portConstraint=eastwest;whiteSpace=wrap;html=1;" parent="HRndRSVT6b_f7wfv0apm-58" vertex="1">
                    <mxGeometry y="112" width="215" height="26" as="geometry"/>
                </mxCell>
                <mxCell id="f54QpN5S-JQbel7T8KCX-3" value="+ reset()" style="text;strokeColor=none;fillColor=none;align=left;verticalAlign=top;spacingLeft=4;spacingRight=4;overflow=hidden;rotatable=0;points=[[0,0.5],[1,0.5]];portConstraint=eastwest;whiteSpace=wrap;html=1;" parent="HRndRSVT6b_f7wfv0apm-58" vertex="1">
                    <mxGeometry y="138" width="215" height="26" as="geometry"/>
                </mxCell>
                <mxCell id="f54QpN5S-JQbel7T8KCX-115" value="+ onStateChange(state: T)" style="text;strokeColor=none;fillColor=none;align=left;verticalAlign=top;spacingLeft=4;spacingRight=4;overflow=hidden;rotatable=0;points=[[0,0.5],[1,0.5]];portConstraint=eastwest;whiteSpace=wrap;html=1;" parent="HRndRSVT6b_f7wfv0apm-58" vertex="1">
                    <mxGeometry y="164" width="215" height="26" as="geometry"/>
                </mxCell>
                <mxCell id="f54QpN5S-JQbel7T8KCX-6" value="ViewData" style="swimlane;fontStyle=1;align=center;verticalAlign=top;childLayout=stackLayout;horizontal=1;startSize=26;horizontalStack=0;resizeParent=1;resizeParentMax=0;resizeLast=0;collapsible=1;marginBottom=0;whiteSpace=wrap;html=1;" parent="1" vertex="1">
                    <mxGeometry x="674" y="690" width="271" height="86" as="geometry">
                        <mxRectangle x="530" y="305" width="120" height="30" as="alternateBounds"/>
                    </mxGeometry>
                </mxCell>
                <mxCell id="f54QpN5S-JQbel7T8KCX-7" value="+ timeFormatted: String" style="text;strokeColor=none;fillColor=none;align=left;verticalAlign=top;spacingLeft=4;spacingRight=4;overflow=hidden;rotatable=0;points=[[0,0.5],[1,0.5]];portConstraint=eastwest;whiteSpace=wrap;html=1;" parent="f54QpN5S-JQbel7T8KCX-6" vertex="1">
                    <mxGeometry y="26" width="271" height="26" as="geometry"/>
                </mxCell>
                <mxCell id="f54QpN5S-JQbel7T8KCX-8" value="+ status: StopwatchStatus" style="text;strokeColor=none;fillColor=none;align=left;verticalAlign=top;spacingLeft=4;spacingRight=4;overflow=hidden;rotatable=0;points=[[0,0.5],[1,0.5]];portConstraint=eastwest;whiteSpace=wrap;html=1;" parent="f54QpN5S-JQbel7T8KCX-6" vertex="1">
                    <mxGeometry y="52" width="271" height="26" as="geometry"/>
                </mxCell>
                <mxCell id="f54QpN5S-JQbel7T8KCX-9" value="" style="line;strokeWidth=1;fillColor=none;align=left;verticalAlign=middle;spacingTop=-1;spacingLeft=3;spacingRight=3;rotatable=0;labelPosition=right;points=[];portConstraint=eastwest;strokeColor=inherit;" parent="f54QpN5S-JQbel7T8KCX-6" vertex="1">
                    <mxGeometry y="78" width="271" height="8" as="geometry"/>
                </mxCell>
                <mxCell id="f54QpN5S-JQbel7T8KCX-16" value="Stopwatch Architecture" style="text;html=1;align=center;verticalAlign=middle;resizable=0;points=[];autosize=1;strokeColor=none;fillColor=none;fontSize=20;fontStyle=1" parent="1" vertex="1">
                    <mxGeometry x="59" y="30" width="224" height="36" as="geometry"/>
                </mxCell>
                <mxCell id="f54QpN5S-JQbel7T8KCX-26" style="rounded=0;orthogonalLoop=1;jettySize=auto;html=1;endArrow=open;endFill=0;dashed=1;" parent="1" edge="1">
                    <mxGeometry relative="1" as="geometry">
                        <mxPoint x="950" y="714" as="sourcePoint"/>
                        <mxPoint x="1309" y="546" as="targetPoint"/>
                    </mxGeometry>
                </mxCell>
                <mxCell id="f54QpN5S-JQbel7T8KCX-27" style="rounded=0;orthogonalLoop=1;jettySize=auto;html=1;endArrow=open;endFill=0;dashed=1;" parent="1" edge="1">
                    <mxGeometry relative="1" as="geometry">
                        <mxPoint x="500" y="478" as="sourcePoint"/>
                        <mxPoint x="669" y="680" as="targetPoint"/>
                    </mxGeometry>
                </mxCell>
                <mxCell id="f54QpN5S-JQbel7T8KCX-28" style="rounded=0;orthogonalLoop=1;jettySize=auto;html=1;endArrow=open;endFill=0;startArrow=diamond;startFill=1;" parent="1" edge="1">
                    <mxGeometry relative="1" as="geometry">
                        <mxPoint x="549" y="408" as="sourcePoint"/>
                        <mxPoint x="667" y="470" as="targetPoint"/>
                    </mxGeometry>
                </mxCell>
                <mxCell id="f54QpN5S-JQbel7T8KCX-31" style="rounded=0;orthogonalLoop=1;jettySize=auto;html=1;endArrow=open;endFill=0;dashed=1;" parent="1" edge="1">
                    <mxGeometry relative="1" as="geometry">
                        <mxPoint x="212" y="429" as="sourcePoint"/>
                        <mxPoint x="665" y="721" as="targetPoint"/>
                    </mxGeometry>
                </mxCell>
                <mxCell id="f54QpN5S-JQbel7T8KCX-85" value="ObservableState&amp;lt;T&amp;gt;" style="swimlane;fontStyle=1;align=center;verticalAlign=top;childLayout=stackLayout;horizontal=1;startSize=26;horizontalStack=0;resizeParent=1;resizeParentMax=0;resizeLast=0;collapsible=1;marginBottom=0;whiteSpace=wrap;html=1;" parent="1" vertex="1">
                    <mxGeometry x="675" y="204" width="275" height="190" as="geometry">
                        <mxRectangle x="250" y="305" width="100" height="30" as="alternateBounds"/>
                    </mxGeometry>
                </mxCell>
                <mxCell id="f54QpN5S-JQbel7T8KCX-113" value="+ state: T" style="text;strokeColor=none;fillColor=none;align=left;verticalAlign=top;spacingLeft=4;spacingRight=4;overflow=hidden;rotatable=0;points=[[0,0.5],[1,0.5]];portConstraint=eastwest;whiteSpace=wrap;html=1;" parent="f54QpN5S-JQbel7T8KCX-85" vertex="1">
                    <mxGeometry y="26" width="275" height="26" as="geometry"/>
                </mxCell>
                <mxCell id="f54QpN5S-JQbel7T8KCX-87" value="- observers: StateObserver&amp;lt;T&amp;gt;[]" style="text;strokeColor=none;fillColor=none;align=left;verticalAlign=top;spacingLeft=4;spacingRight=4;overflow=hidden;rotatable=0;points=[[0,0.5],[1,0.5]];portConstraint=eastwest;whiteSpace=wrap;html=1;" parent="f54QpN5S-JQbel7T8KCX-85" vertex="1">
                    <mxGeometry y="52" width="275" height="26" as="geometry"/>
                </mxCell>
                <mxCell id="f54QpN5S-JQbel7T8KCX-88" value="" style="line;strokeWidth=1;fillColor=none;align=left;verticalAlign=middle;spacingTop=-1;spacingLeft=3;spacingRight=3;rotatable=0;labelPosition=right;points=[];portConstraint=eastwest;strokeColor=inherit;" parent="f54QpN5S-JQbel7T8KCX-85" vertex="1">
                    <mxGeometry y="78" width="275" height="8" as="geometry"/>
                </mxCell>
                <mxCell id="f54QpN5S-JQbel7T8KCX-114" value="+ ObservableState(state: T)" style="text;strokeColor=none;fillColor=none;align=left;verticalAlign=top;spacingLeft=4;spacingRight=4;overflow=hidden;rotatable=0;points=[[0,0.5],[1,0.5]];portConstraint=eastwest;whiteSpace=wrap;html=1;" parent="f54QpN5S-JQbel7T8KCX-85" vertex="1">
                    <mxGeometry y="86" width="275" height="26" as="geometry"/>
                </mxCell>
                <mxCell id="f54QpN5S-JQbel7T8KCX-89" value="+ addObserver(observer: StateObserver&amp;lt;T&amp;gt;)" style="text;strokeColor=none;fillColor=none;align=left;verticalAlign=top;spacingLeft=4;spacingRight=4;overflow=hidden;rotatable=0;points=[[0,0.5],[1,0.5]];portConstraint=eastwest;whiteSpace=wrap;html=1;" parent="f54QpN5S-JQbel7T8KCX-85" vertex="1">
                    <mxGeometry y="112" width="275" height="26" as="geometry"/>
                </mxCell>
                <mxCell id="f54QpN5S-JQbel7T8KCX-90" value="+ removeObserver(observer: StateObserver&amp;lt;T&amp;gt;)" style="text;strokeColor=none;fillColor=none;align=left;verticalAlign=top;spacingLeft=4;spacingRight=4;overflow=hidden;rotatable=0;points=[[0,0.5],[1,0.5]];portConstraint=eastwest;whiteSpace=wrap;html=1;" parent="f54QpN5S-JQbel7T8KCX-85" vertex="1">
                    <mxGeometry y="138" width="275" height="26" as="geometry"/>
                </mxCell>
                <mxCell id="f54QpN5S-JQbel7T8KCX-91" value="+ updateState(state: T)" style="text;strokeColor=none;fillColor=none;align=left;verticalAlign=top;spacingLeft=4;spacingRight=4;overflow=hidden;rotatable=0;points=[[0,0.5],[1,0.5]];portConstraint=eastwest;whiteSpace=wrap;html=1;" parent="f54QpN5S-JQbel7T8KCX-85" vertex="1">
                    <mxGeometry y="164" width="275" height="26" as="geometry"/>
                </mxCell>
                <mxCell id="f54QpN5S-JQbel7T8KCX-98" style="rounded=0;orthogonalLoop=1;jettySize=auto;html=1;endArrow=open;endFill=0;startArrow=diamond;startFill=0;" parent="1" edge="1">
                    <mxGeometry relative="1" as="geometry">
                        <mxPoint x="810" y="162" as="targetPoint"/>
                        <mxPoint x="810" y="200" as="sourcePoint"/>
                    </mxGeometry>
                </mxCell>
                <mxCell id="f54QpN5S-JQbel7T8KCX-100" value="&lt;span style=&quot;font-weight: normal;&quot;&gt;StateObserver&amp;lt;T&amp;gt;&lt;/span&gt;" style="swimlane;fontStyle=1;align=center;verticalAlign=top;childLayout=stackLayout;horizontal=1;startSize=26;horizontalStack=0;resizeParent=1;resizeParentMax=0;resizeLast=0;collapsible=1;marginBottom=0;whiteSpace=wrap;html=1;" parent="1" vertex="1">
                    <mxGeometry x="674" y="95" width="276" height="61" as="geometry">
                        <mxRectangle x="250" y="305" width="100" height="30" as="alternateBounds"/>
                    </mxGeometry>
                </mxCell>
                <mxCell id="f54QpN5S-JQbel7T8KCX-101" value="" style="line;strokeWidth=1;fillColor=none;align=left;verticalAlign=middle;spacingTop=-1;spacingLeft=3;spacingRight=3;rotatable=0;labelPosition=right;points=[];portConstraint=eastwest;strokeColor=inherit;" parent="f54QpN5S-JQbel7T8KCX-100" vertex="1">
                    <mxGeometry y="26" width="276" height="8" as="geometry"/>
                </mxCell>
                <mxCell id="f54QpN5S-JQbel7T8KCX-102" value="+ onStateChange(state: T)" style="text;strokeColor=none;fillColor=none;align=left;verticalAlign=top;spacingLeft=4;spacingRight=4;overflow=hidden;rotatable=0;points=[[0,0.5],[1,0.5]];portConstraint=eastwest;whiteSpace=wrap;html=1;" parent="f54QpN5S-JQbel7T8KCX-100" vertex="1">
                    <mxGeometry y="34" width="276" height="27" as="geometry"/>
                </mxCell>
                <mxCell id="f54QpN5S-JQbel7T8KCX-75" style="rounded=0;orthogonalLoop=1;jettySize=auto;html=1;endArrow=open;endFill=0;dashed=1;" parent="1" edge="1">
                    <mxGeometry relative="1" as="geometry">
                        <mxPoint x="1016" y="488" as="targetPoint"/>
                        <mxPoint x="950" y="488" as="sourcePoint"/>
                    </mxGeometry>
                </mxCell>
                <mxCell id="f54QpN5S-JQbel7T8KCX-109" style="rounded=0;orthogonalLoop=1;jettySize=auto;html=1;endArrow=open;endFill=0;startArrow=diamond;startFill=1;" parent="1" edge="1">
                    <mxGeometry relative="1" as="geometry">
                        <mxPoint x="809.39" y="467" as="sourcePoint"/>
                        <mxPoint x="809" y="398" as="targetPoint"/>
                    </mxGeometry>
                </mxCell>
                <mxCell id="f54QpN5S-JQbel7T8KCX-110" style="rounded=0;orthogonalLoop=1;jettySize=auto;html=1;endArrow=open;endFill=0;startArrow=diamond;startFill=1;" parent="1" edge="1">
                    <mxGeometry relative="1" as="geometry">
                        <mxPoint x="551" y="354" as="sourcePoint"/>
                        <mxPoint x="667" y="354" as="targetPoint"/>
                    </mxGeometry>
                </mxCell>
                <mxCell id="f54QpN5S-JQbel7T8KCX-111" style="rounded=0;orthogonalLoop=1;jettySize=auto;html=1;endArrow=block;endFill=0;dashed=1;" parent="1" edge="1">
                    <mxGeometry relative="1" as="geometry">
                        <mxPoint x="537" y="275" as="sourcePoint"/>
                        <mxPoint x="678" y="162" as="targetPoint"/>
                    </mxGeometry>
                </mxCell>
                <mxCell id="f54QpN5S-JQbel7T8KCX-112" style="rounded=0;orthogonalLoop=1;jettySize=auto;html=1;endArrow=block;endFill=0;dashed=1;" parent="1" edge="1">
                    <mxGeometry relative="1" as="geometry">
                        <mxPoint x="247" y="279" as="sourcePoint"/>
                        <mxPoint x="667" y="129" as="targetPoint"/>
                    </mxGeometry>
                </mxCell>
                <mxCell id="f54QpN5S-JQbel7T8KCX-117" value="«interface»&lt;br&gt;&lt;b&gt;StateObserver&amp;lt;T&amp;gt;&lt;/b&gt;" style="html=1;whiteSpace=wrap;" parent="1" vertex="1">
                    <mxGeometry x="674" y="71" width="276" height="50" as="geometry"/>
                </mxCell>
                <mxCell id="f54QpN5S-JQbel7T8KCX-24" style="edgeStyle=orthogonalEdgeStyle;rounded=0;orthogonalLoop=1;jettySize=auto;html=1;endArrow=open;endFill=0;dashed=1;" parent="1" edge="1">
                    <mxGeometry relative="1" as="geometry">
                        <mxPoint x="1309" y="488" as="targetPoint"/>
                        <mxPoint x="1238" y="488" as="sourcePoint"/>
                    </mxGeometry>
                </mxCell>
            </root>
        </mxGraphModel>
    </diagram>
</mxfile>